<mxfile host="app.diagrams.net" modified="2024-05-22T00:28:15.717Z" agent="Mozilla/5.0 (Macintosh; Intel Mac OS X 10_15_7) AppleWebKit/537.36 (KHTML, like Gecko) Chrome/124.0.0.0 Safari/537.36" version="24.4.4" etag="ip000qga3ZGhZIawyOfw" type="github">
  <diagram name="페이지-1" id="X9hsY4KlEgj9cl7xlDIF">
    <mxGraphModel>
      <root>
        <mxCell id="0" />
        <mxCell id="1" parent="0" />
      </root>
    </mxGraphModel>
  </diagram>
</mxfile>
